<svg xmlns="http://www.w3.org/2000/svg" viewBox="0 0 653.39 429.24"><defs><style>.cls-1{isolation:isolate;}.cls-10,.cls-12,.cls-18,.cls-2{fill:none;stroke-miterlimit:10;}.cls-2{stroke:#f9fbfc;stroke-width:0.7px;}.cls-16,.cls-3,.cls-8,.cls-9{mix-blend-mode:multiply;}.cls-3{opacity:0.2;}.cls-4{fill:#364a8a;}.cls-5{fill:#425b99;}.cls-6{fill:#4f8b35;}.cls-7{fill:#609e43;}.cls-8{fill:#c3d3dd;}.cls-9{fill:#dce8ef;}.cls-10{stroke:#253258;}.cls-11{fill:#e1ae42;}.cls-12,.cls-18{stroke:#f9ca78;}.cls-12{stroke-width:0.95px;}.cls-13,.cls-25,.cls-26{fill:#253258;}.cls-14,.cls-16{fill:#ce861e;}.cls-15{fill:#f9ca78;}.cls-16{opacity:0.3;}.cls-17{fill:#1c2a51;}.cls-19{font-size:40.96px;fill:#222221;font-family:BebasNeueBook;letter-spacing:-0.02em;}.cls-20,.cls-23{letter-spacing:0.01em;}.cls-21{letter-spacing:0.01em;}.cls-22{letter-spacing:0.01em;}.cls-23{fill:#e0ad42;font-family:BebasNeue;}.cls-24{font-size:7.77px;fill:#f9fbfc;font-family:Poppins-SemiBoldItalic, Poppins;}.cls-24,.cls-26,.cls-27{font-weight:600;}.cls-24,.cls-25{font-style:italic;}.cls-25{font-size:17.49px;font-family:Poppins-BoldItalic, Poppins;font-weight:700;}.cls-26{font-size:12px;}.cls-26,.cls-27{font-family:Poppins-SemiBold, Poppins;}.cls-27{font-size:7.93px;fill:#fff;}</style></defs><g class="cls-1"><g id="OBJECTS"><polyline class="cls-2" points="106.8 128.91 219.31 128.91 219.31 252.93 106.8 252.93"/><polyline class="cls-2" points="89.23 222.72 106.8 222.72 106.8 283.72 89.32 283.72"/><polyline class="cls-2" points="89.4 98.28 106.79 98.28 106.79 159.28 89.4 159.28"/><line class="cls-2" x1="219.15" y1="190.88" x2="290.78" y2="190.88"/><g class="cls-3"><path d="M59.93,132a8.53,8.53,0,0,1-6-14.57,8.44,8.44,0,0,1,6-2.51h71.71a8.54,8.54,0,1,1,0,17.08Z" transform="translate(-49.3 -23.39)"/><path d="M131.64,115.11a8.3,8.3,0,1,1,0,16.6H59.93a8.3,8.3,0,0,1-5.86-14.17,8.2,8.2,0,0,1,5.86-2.43h71.71m0-.47H59.93a8.77,8.77,0,0,0,0,17.54h71.71a8.77,8.77,0,1,0,0-17.54Z" transform="translate(-49.3 -23.39)"/></g><path class="cls-4" d="M58.07,130.08a8.53,8.53,0,0,1-6-14.56,8.45,8.45,0,0,1,6-2.51h71.71a8.54,8.54,0,0,1,6,14.58,8.45,8.45,0,0,1-6,2.49Z" transform="translate(-49.3 -23.39)"/><path class="cls-5" d="M129.78,113.24a8.31,8.31,0,0,1,5.87,14.18,8.22,8.22,0,0,1-5.87,2.43H58.07a8.31,8.31,0,0,1,0-16.61h71.71m0-.46H58.07a8.77,8.77,0,0,0,0,17.53h71.71a8.77,8.77,0,0,0,0-17.53Z" transform="translate(-49.3 -23.39)"/><path class="cls-6" d="M58.07,130.08a8.54,8.54,0,1,1,0-17.07H76.21L66.3,130.08Z" transform="translate(-49.3 -23.39)"/><path class="cls-7" d="M75.8,113.25l-9.63,16.6h-8.1a8.31,8.31,0,0,1-8.3-8.3,8.3,8.3,0,0,1,8.3-8.3H75.8m.81-.47H58.07a8.77,8.77,0,1,0,0,17.54h8.37l10.17-17.54Z" transform="translate(-49.3 -23.39)"/><path class="cls-8" d="M138.54,121.55a8.74,8.74,0,0,1-8.76,8.76H58.07a8.76,8.76,0,0,1-8.76-8.76Z" transform="translate(-49.3 -23.39)"/><g class="cls-3"><path d="M177.35,162.59a8.53,8.53,0,0,1-6-14.56,8.45,8.45,0,0,1,6-2.51h71.71a8.54,8.54,0,0,1,6,14.58,8.45,8.45,0,0,1-6,2.49Z" transform="translate(-49.3 -23.39)"/><path d="M249.06,145.76a8.3,8.3,0,1,1,0,16.6H177.35a8.3,8.3,0,0,1-5.87-14.17,8.22,8.22,0,0,1,5.87-2.43h71.71m0-.47H177.35a8.77,8.77,0,1,0,0,17.54h71.71a8.77,8.77,0,0,0,0-17.54Z" transform="translate(-49.3 -23.39)"/></g><path class="cls-4" d="M175.48,160.73a8.53,8.53,0,0,1-6-14.57,8.45,8.45,0,0,1,6-2.5h71.71a8.54,8.54,0,1,1,0,17.07Z" transform="translate(-49.3 -23.39)"/><path class="cls-5" d="M247.19,143.89a8.31,8.31,0,0,1,0,16.61H175.48a8.31,8.31,0,0,1,0-16.61h71.71m0-.47H175.48a8.77,8.77,0,0,0,0,17.54h71.71a8.77,8.77,0,1,0,0-17.54Z" transform="translate(-49.3 -23.39)"/><path class="cls-6" d="M175.48,160.73a8.54,8.54,0,0,1,0-17.07h18.14l-9.9,17.07Z" transform="translate(-49.3 -23.39)"/><path class="cls-7" d="M193.22,143.89l-9.64,16.61h-8.1a8.31,8.31,0,0,1,0-16.61h17.74m.8-.46H175.48a8.77,8.77,0,0,0,0,17.54h8.37L194,143.43Z" transform="translate(-49.3 -23.39)"/><path class="cls-8" d="M256,152.2a8.76,8.76,0,0,1-8.77,8.76H175.48a8.76,8.76,0,0,1-8.76-8.76Z" transform="translate(-49.3 -23.39)"/><g class="cls-3"><path d="M290.9,224.72a8.53,8.53,0,0,1-6-14.56,8.42,8.42,0,0,1,6-2.51h71.71a8.54,8.54,0,1,1,0,17.07Z" transform="translate(-49.3 -23.39)"/><path d="M362.61,207.89a8.3,8.3,0,0,1,5.87,14.17,8.22,8.22,0,0,1-5.87,2.43H290.9A8.3,8.3,0,0,1,285,210.32a8.22,8.22,0,0,1,5.87-2.43h71.71m0-.47H290.9a8.77,8.77,0,0,0,0,17.54h71.71a8.77,8.77,0,0,0,0-17.54Z" transform="translate(-49.3 -23.39)"/></g><path class="cls-4" d="M289,222.86a8.54,8.54,0,1,1,0-17.07h71.71a8.54,8.54,0,0,1,0,17.07Z" transform="translate(-49.3 -23.39)"/><path class="cls-5" d="M360.75,206a8.31,8.31,0,0,1,0,16.61H289a8.31,8.31,0,0,1-8.3-8.3A8.31,8.31,0,0,1,289,206h71.71m0-.47H289a8.79,8.79,0,0,0-8.77,8.78,8.77,8.77,0,0,0,8.77,8.76h71.71a8.77,8.77,0,0,0,0-17.54Z" transform="translate(-49.3 -23.39)"/><path class="cls-6" d="M289,222.86a8.54,8.54,0,0,1,0-17.07h18.14l-9.9,17.07Z" transform="translate(-49.3 -23.39)"/><path class="cls-7" d="M306.77,206l-9.63,16.61H289A8.31,8.31,0,0,1,289,206h17.74m.81-.46H289a8.77,8.77,0,0,0,0,17.54h8.38l10.17-17.54Z" transform="translate(-49.3 -23.39)"/><path class="cls-8" d="M369.51,214.33a8.74,8.74,0,0,1-8.76,8.76H289a8.77,8.77,0,0,1-8.77-8.76Z" transform="translate(-49.3 -23.39)"/><g class="cls-3"><path d="M177.35,286.68a8.54,8.54,0,1,1,0-17.07h71.71a8.54,8.54,0,0,1,0,17.07Z" transform="translate(-49.3 -23.39)"/><path d="M249.06,269.84a8.31,8.31,0,0,1,0,16.61H177.35a8.31,8.31,0,0,1-8.3-8.3,8.31,8.31,0,0,1,8.3-8.31h71.71m0-.47H177.35a8.77,8.77,0,1,0,0,17.54h71.71a8.77,8.77,0,0,0,0-17.54Z" transform="translate(-49.3 -23.39)"/></g><path class="cls-4" d="M175.48,284.81a8.53,8.53,0,0,1-6-14.56,8.42,8.42,0,0,1,6-2.51h71.71a8.54,8.54,0,1,1,0,17.07Z" transform="translate(-49.3 -23.39)"/><path class="cls-5" d="M247.19,268a8.31,8.31,0,0,1,5.87,14.18,8.22,8.22,0,0,1-5.87,2.43H175.48a8.31,8.31,0,0,1,0-16.61h71.71m0-.46H175.48a8.77,8.77,0,0,0,0,17.54h71.71a8.77,8.77,0,1,0,0-17.54Z" transform="translate(-49.3 -23.39)"/><path class="cls-6" d="M175.48,284.82a8.54,8.54,0,0,1,0-17.08h18.14l-9.9,17.08Z" transform="translate(-49.3 -23.39)"/><path class="cls-7" d="M193.22,268l-9.64,16.6h-8.1a8.3,8.3,0,1,1,0-16.6h17.74m.8-.47H175.48a8.77,8.77,0,0,0,0,17.54h8.37L194,267.51Z" transform="translate(-49.3 -23.39)"/><path class="cls-8" d="M256,276.28a8.77,8.77,0,0,1-8.77,8.77H175.48a8.77,8.77,0,0,1-8.76-8.77Z" transform="translate(-49.3 -23.39)"/><g class="cls-3"><path d="M59.93,193.55a8.54,8.54,0,0,1,0-17.07h71.71a8.54,8.54,0,1,1,0,17.07Z" transform="translate(-49.3 -23.39)"/><path d="M131.64,176.71a8.31,8.31,0,1,1,0,16.61H59.93a8.31,8.31,0,0,1-8.29-8.3,8.31,8.31,0,0,1,8.29-8.31h71.71m0-.47H59.93a8.77,8.77,0,0,0,0,17.54h71.71a8.77,8.77,0,1,0,0-17.54Z" transform="translate(-49.3 -23.39)"/></g><path class="cls-4" d="M58.07,191.68a8.53,8.53,0,0,1-6-14.56,8.45,8.45,0,0,1,6-2.51h71.71a8.54,8.54,0,0,1,6,14.58,8.45,8.45,0,0,1-6,2.49Z" transform="translate(-49.3 -23.39)"/><path class="cls-5" d="M129.78,174.85A8.3,8.3,0,0,1,135.65,189a8.22,8.22,0,0,1-5.87,2.43H58.07a8.3,8.3,0,0,1-5.87-14.17,8.22,8.22,0,0,1,5.87-2.43h71.71m0-.47H58.07a8.77,8.77,0,0,0,0,17.54h71.71a8.77,8.77,0,0,0,0-17.54Z" transform="translate(-49.3 -23.39)"/><path class="cls-6" d="M58.07,191.69a8.54,8.54,0,1,1,0-17.07H76.21L66.3,191.69Z" transform="translate(-49.3 -23.39)"/><path class="cls-7" d="M75.8,174.85l-9.63,16.61h-8.1a8.31,8.31,0,0,1,0-16.61H75.8m.81-.47H58.07a8.77,8.77,0,0,0,0,17.54h8.37l10.17-17.54Z" transform="translate(-49.3 -23.39)"/><path class="cls-8" d="M138.54,183.15a8.76,8.76,0,0,1-8.76,8.77H58.07a8.77,8.77,0,0,1-8.76-8.77Z" transform="translate(-49.3 -23.39)"/><g class="cls-3"><path d="M59.93,257a8.53,8.53,0,0,1-6-14.57,8.44,8.44,0,0,1,6-2.51h71.71a8.54,8.54,0,1,1,0,17.08Z" transform="translate(-49.3 -23.39)"/><path d="M131.64,240.16a8.3,8.3,0,1,1,0,16.6H59.93a8.3,8.3,0,0,1-5.86-14.17,8.2,8.2,0,0,1,5.86-2.43h71.71m0-.47H59.93a8.77,8.77,0,0,0,0,17.54h71.71a8.77,8.77,0,0,0,0-17.54Z" transform="translate(-49.3 -23.39)"/></g><path class="cls-4" d="M58.07,255.13a8.54,8.54,0,1,1,0-17.07h71.71a8.54,8.54,0,0,1,6,14.58,8.45,8.45,0,0,1-6,2.49Z" transform="translate(-49.3 -23.39)"/><path class="cls-5" d="M129.78,238.29a8.31,8.31,0,0,1,5.87,14.18,8.22,8.22,0,0,1-5.87,2.43H58.07a8.31,8.31,0,0,1-8.3-8.3,8.31,8.31,0,0,1,8.3-8.31h71.71m0-.46H58.07a8.77,8.77,0,0,0,0,17.53h71.71a8.77,8.77,0,0,0,0-17.53Z" transform="translate(-49.3 -23.39)"/><path class="cls-6" d="M58.07,255.13a8.54,8.54,0,1,1,0-17.07H76.21L66.3,255.13Z" transform="translate(-49.3 -23.39)"/><path class="cls-7" d="M75.8,238.29,66.17,254.9h-8.1a8.31,8.31,0,0,1-8.3-8.3,8.31,8.31,0,0,1,8.3-8.31H75.8m.81-.46H58.07a8.77,8.77,0,0,0,0,17.54h8.37l10.17-17.54Z" transform="translate(-49.3 -23.39)"/><path class="cls-8" d="M138.54,246.6a8.74,8.74,0,0,1-8.76,8.76H58.07a8.76,8.76,0,0,1-8.76-8.76Z" transform="translate(-49.3 -23.39)"/><g class="cls-3"><path d="M59.93,317.28a8.53,8.53,0,0,1-6-14.56,8.44,8.44,0,0,1,6-2.51h71.71a8.54,8.54,0,1,1,0,17.07Z" transform="translate(-49.3 -23.39)"/><path d="M131.64,300.44a8.31,8.31,0,1,1,0,16.61H59.93a8.3,8.3,0,0,1-5.86-14.17,8.21,8.21,0,0,1,5.86-2.44h71.71m0-.46H59.93a8.77,8.77,0,0,0,0,17.54h71.71a8.77,8.77,0,1,0,0-17.54Z" transform="translate(-49.3 -23.39)"/></g><path class="cls-4" d="M58.07,315.42a8.54,8.54,0,0,1-6-14.57,8.44,8.44,0,0,1,6-2.5h71.71a8.53,8.53,0,0,1,6,14.57,8.45,8.45,0,0,1-6,2.5Z" transform="translate(-49.3 -23.39)"/><path class="cls-5" d="M129.78,298.58a8.3,8.3,0,1,1,0,16.6H58.07A8.3,8.3,0,0,1,52.2,301a8.22,8.22,0,0,1,5.87-2.43h71.71m0-.47H58.07a8.77,8.77,0,0,0,0,17.54h71.71a8.77,8.77,0,0,0,0-17.54Z" transform="translate(-49.3 -23.39)"/><path class="cls-6" d="M58.07,315.42a8.54,8.54,0,1,1,0-17.07H76.21L66.3,315.42Z" transform="translate(-49.3 -23.39)"/><path class="cls-7" d="M75.8,298.58l-9.63,16.61h-8.1a8.31,8.31,0,0,1,0-16.61H75.8m.81-.47H58.07a8.77,8.77,0,0,0,0,17.54h8.37l10.17-17.54Z" transform="translate(-49.3 -23.39)"/><path class="cls-8" d="M138.54,306.89a8.74,8.74,0,0,1-8.76,8.76H58.07a8.76,8.76,0,0,1-8.76-8.76Z" transform="translate(-49.3 -23.39)"/><polyline class="cls-2" points="544.6 128.91 432.08 128.91 432.08 252.93 544.6 252.93"/><polyline class="cls-2" points="562.16 222.72 544.6 222.72 544.6 283.72 562.08 283.72"/><polyline class="cls-2" points="562 98.28 544.6 98.28 544.6 159.28 562 159.28"/><line class="cls-2" x1="432.25" y1="190.88" x2="360.62" y2="190.88"/><g class="cls-3"><path d="M391.26,224.85a8.52,8.52,0,1,1,0-17H463a8.52,8.52,0,0,1,0,17Z" transform="translate(-49.3 -23.39)"/><path d="M463,208.06a8.27,8.27,0,0,1,0,16.54H391.26a8.27,8.27,0,1,1,0-16.54H463m0-.5H391.26a8.77,8.77,0,0,0,0,17.54H463a8.77,8.77,0,0,0,0-17.54Z" transform="translate(-49.3 -23.39)"/></g><path class="cls-4" d="M389.26,222.85a8.52,8.52,0,1,1,0-17H461a8.52,8.52,0,0,1,0,17Z" transform="translate(-49.3 -23.39)"/><path class="cls-5" d="M461,206.06a8.27,8.27,0,0,1,0,16.54H389.26a8.27,8.27,0,1,1,0-16.54H461m0-.5H389.26a8.77,8.77,0,0,0,0,17.54H461a8.77,8.77,0,0,0,0-17.54Z" transform="translate(-49.3 -23.39)"/><path class="cls-6" d="M452.74,222.85l-9.88-17H461a8.52,8.52,0,0,1,0,17Z" transform="translate(-49.3 -23.39)"/><path class="cls-7" d="M461,206.06a8.27,8.27,0,0,1,0,16.54h-8.09l-9.59-16.54H461m0-.5H442.42l10.17,17.54H461a8.77,8.77,0,0,0,0-17.54Z" transform="translate(-49.3 -23.39)"/><path class="cls-9" d="M469.73,214.33A8.77,8.77,0,0,1,461,223.1H389.26a8.77,8.77,0,0,1-8.77-8.77Z" transform="translate(-49.3 -23.39)"/><g class="cls-3"><path d="M504.81,162.72a8.52,8.52,0,1,1,0-17h71.71a8.52,8.52,0,0,1,0,17Z" transform="translate(-49.3 -23.39)"/><path d="M576.52,145.93a8.27,8.27,0,0,1,0,16.54H504.81a8.27,8.27,0,1,1,0-16.54h71.71m0-.5H504.81a8.77,8.77,0,0,0,0,17.54h71.71a8.77,8.77,0,0,0,0-17.54Z" transform="translate(-49.3 -23.39)"/></g><path class="cls-4" d="M502.81,160.72a8.52,8.52,0,1,1,0-17h71.71a8.52,8.52,0,0,1,0,17Z" transform="translate(-49.3 -23.39)"/><path class="cls-5" d="M574.52,143.93a8.27,8.27,0,0,1,0,16.54H502.81a8.27,8.27,0,1,1,0-16.54h71.71m0-.5H502.81a8.77,8.77,0,0,0,0,17.54h71.71a8.77,8.77,0,0,0,0-17.54Z" transform="translate(-49.3 -23.39)"/><path class="cls-6" d="M566.29,160.72l-9.88-17h18.11a8.52,8.52,0,0,1,0,17Z" transform="translate(-49.3 -23.39)"/><path class="cls-7" d="M574.52,143.93a8.27,8.27,0,0,1,0,16.54h-8.08l-9.6-16.54h17.68m0-.5H556L566.15,161h8.37a8.77,8.77,0,1,0,0-17.54Z" transform="translate(-49.3 -23.39)"/><path class="cls-9" d="M583.28,152.2a8.77,8.77,0,0,1-8.76,8.77H502.81A8.77,8.77,0,0,1,494,152.2Z" transform="translate(-49.3 -23.39)"/><g class="cls-3"><path d="M504.81,286.8a8.52,8.52,0,1,1,0-17h71.71a8.52,8.52,0,0,1,0,17Z" transform="translate(-49.3 -23.39)"/><path d="M576.52,270a8.27,8.27,0,0,1,0,16.54H504.81a8.27,8.27,0,1,1,0-16.54h71.71m0-.5H504.81a8.77,8.77,0,0,0,0,17.54h71.71a8.77,8.77,0,0,0,0-17.54Z" transform="translate(-49.3 -23.39)"/></g><path class="cls-4" d="M502.81,284.8a8.52,8.52,0,1,1,0-17h71.71a8.52,8.52,0,0,1,0,17Z" transform="translate(-49.3 -23.39)"/><path class="cls-5" d="M574.52,268a8.27,8.27,0,0,1,0,16.54H502.81a8.27,8.27,0,1,1,0-16.54h71.71m0-.5H502.81a8.77,8.77,0,0,0,0,17.54h71.71a8.77,8.77,0,0,0,0-17.54Z" transform="translate(-49.3 -23.39)"/><path class="cls-6" d="M566.29,284.8l-9.88-17h18.11a8.52,8.52,0,0,1,0,17Z" transform="translate(-49.3 -23.39)"/><path class="cls-7" d="M574.52,268a8.27,8.27,0,0,1,0,16.54h-8.08L556.84,268h17.68m0-.5H556l10.17,17.54h8.37a8.77,8.77,0,0,0,0-17.54Z" transform="translate(-49.3 -23.39)"/><path class="cls-9" d="M583.28,276.28a8.77,8.77,0,0,1-8.76,8.77H502.81a8.77,8.77,0,0,1-8.77-8.77Z" transform="translate(-49.3 -23.39)"/><g class="cls-3"><path d="M622.22,132.07a8.52,8.52,0,1,1,0-17h71.71a8.52,8.52,0,0,1,0,17Z" transform="translate(-49.3 -23.39)"/><path d="M693.93,115.28a8.27,8.27,0,0,1,0,16.54H622.22a8.27,8.27,0,1,1,0-16.54h71.71m0-.5H622.22a8.77,8.77,0,0,0,0,17.54h71.71a8.77,8.77,0,0,0,0-17.54Z" transform="translate(-49.3 -23.39)"/></g><path class="cls-4" d="M620.22,130.07a8.52,8.52,0,1,1,0-17h71.71a8.52,8.52,0,0,1,0,17Z" transform="translate(-49.3 -23.39)"/><path class="cls-5" d="M691.93,113.28a8.27,8.27,0,0,1,0,16.54H620.22a8.27,8.27,0,1,1,0-16.54h71.71m0-.5H620.22a8.77,8.77,0,0,0,0,17.54h71.71a8.77,8.77,0,0,0,0-17.54Z" transform="translate(-49.3 -23.39)"/><path class="cls-6" d="M683.71,130.07l-9.89-17h18.11a8.52,8.52,0,1,1,0,17Z" transform="translate(-49.3 -23.39)"/><path class="cls-7" d="M691.93,113.28a8.27,8.27,0,1,1,0,16.54h-8.08l-9.59-16.54h17.67m0-.5H673.39l10.17,17.54h8.37a8.77,8.77,0,0,0,0-17.54Z" transform="translate(-49.3 -23.39)"/><path class="cls-9" d="M700.69,121.55a8.77,8.77,0,0,1-8.76,8.77H620.22a8.77,8.77,0,0,1-8.77-8.77Z" transform="translate(-49.3 -23.39)"/><g class="cls-3"><path d="M622.22,193.67a8.52,8.52,0,1,1,0-17h71.71a8.52,8.52,0,0,1,0,17Z" transform="translate(-49.3 -23.39)"/><path d="M693.93,176.88a8.27,8.27,0,0,1,0,16.54H622.22a8.27,8.27,0,1,1,0-16.54h71.71m0-.5H622.22a8.77,8.77,0,0,0,0,17.54h71.71a8.77,8.77,0,0,0,0-17.54Z" transform="translate(-49.3 -23.39)"/></g><path class="cls-4" d="M620.22,191.67a8.52,8.52,0,1,1,0-17h71.71a8.52,8.52,0,0,1,0,17Z" transform="translate(-49.3 -23.39)"/><path class="cls-5" d="M691.93,174.88a8.27,8.27,0,0,1,0,16.54H620.22a8.27,8.27,0,1,1,0-16.54h71.71m0-.5H620.22a8.77,8.77,0,0,0,0,17.54h71.71a8.77,8.77,0,0,0,0-17.54Z" transform="translate(-49.3 -23.39)"/><path class="cls-6" d="M683.71,191.67l-9.89-17h18.11a8.52,8.52,0,1,1,0,17Z" transform="translate(-49.3 -23.39)"/><path class="cls-7" d="M691.93,174.88a8.27,8.27,0,1,1,0,16.54h-8.08l-9.59-16.54h17.67m0-.5H673.39l10.17,17.54h8.37a8.77,8.77,0,0,0,0-17.54Z" transform="translate(-49.3 -23.39)"/><path class="cls-9" d="M700.69,183.15a8.77,8.77,0,0,1-8.76,8.77H620.22a8.77,8.77,0,0,1-8.77-8.77Z" transform="translate(-49.3 -23.39)"/><g class="cls-3"><path d="M622.22,257.12a8.52,8.52,0,1,1,0-17h71.71a8.52,8.52,0,0,1,0,17Z" transform="translate(-49.3 -23.39)"/><path d="M693.93,240.33a8.27,8.27,0,0,1,0,16.54H622.22a8.27,8.27,0,1,1,0-16.54h71.71m0-.5H622.22a8.77,8.77,0,0,0,0,17.54h71.71a8.77,8.77,0,0,0,0-17.54Z" transform="translate(-49.3 -23.39)"/></g><path class="cls-4" d="M620.22,255.12a8.52,8.52,0,1,1,0-17h71.71a8.52,8.52,0,0,1,0,17Z" transform="translate(-49.3 -23.39)"/><path class="cls-5" d="M691.93,238.33a8.27,8.27,0,0,1,0,16.54H620.22a8.27,8.27,0,1,1,0-16.54h71.71m0-.5H620.22a8.77,8.77,0,0,0,0,17.54h71.71a8.77,8.77,0,0,0,0-17.54Z" transform="translate(-49.3 -23.39)"/><path class="cls-6" d="M683.71,255.12l-9.89-17h18.11a8.52,8.52,0,0,1,8.52,8.52,8.53,8.53,0,0,1-8.52,8.52Z" transform="translate(-49.3 -23.39)"/><path class="cls-7" d="M691.93,238.33a8.27,8.27,0,1,1,0,16.54h-8.08l-9.59-16.54h17.67m0-.5H673.39l10.17,17.54h8.37a8.77,8.77,0,0,0,0-17.54Z" transform="translate(-49.3 -23.39)"/><path class="cls-9" d="M700.69,246.6a8.77,8.77,0,0,1-8.76,8.77H620.22a8.77,8.77,0,0,1-8.77-8.77Z" transform="translate(-49.3 -23.39)"/><g class="cls-3"><path d="M622.22,317.41a8.52,8.52,0,1,1,0-17h71.71a8.52,8.52,0,0,1,0,17Z" transform="translate(-49.3 -23.39)"/><path d="M693.93,300.62a8.27,8.27,0,0,1,0,16.54H622.22a8.3,8.3,0,0,1-8.27-8.27,8.28,8.28,0,0,1,8.27-8.27h71.71m0-.5H622.22a8.77,8.77,0,0,0,0,17.54h71.71a8.77,8.77,0,0,0,0-17.54Z" transform="translate(-49.3 -23.39)"/></g><path class="cls-4" d="M620.22,315.41a8.52,8.52,0,1,1,0-17h71.71a8.52,8.52,0,0,1,0,17Z" transform="translate(-49.3 -23.39)"/><path class="cls-5" d="M691.93,298.62a8.27,8.27,0,0,1,0,16.54H620.22a8.3,8.3,0,0,1-8.27-8.27,8.28,8.28,0,0,1,8.27-8.27h71.71m0-.5H620.22a8.77,8.77,0,0,0,0,17.54h71.71a8.77,8.77,0,0,0,0-17.54Z" transform="translate(-49.3 -23.39)"/><path class="cls-6" d="M683.71,315.4l-9.89-17h18.11a8.52,8.52,0,0,1,8.52,8.51,8.53,8.53,0,0,1-8.52,8.52Z" transform="translate(-49.3 -23.39)"/><path class="cls-7" d="M691.93,298.61a8.28,8.28,0,0,1,8.27,8.27,8.28,8.28,0,0,1-8.27,8.27h-8.08l-9.59-16.54h17.67m0-.5H673.39l10.17,17.54h8.37a8.77,8.77,0,0,0,0-17.54Z" transform="translate(-49.3 -23.39)"/><path class="cls-9" d="M700.69,306.89a8.77,8.77,0,0,1-8.76,8.77H620.22a8.77,8.77,0,0,1-8.77-8.77Z" transform="translate(-49.3 -23.39)"/><rect class="cls-4" x="38.55" y="325.9" width="110.96" height="103.34" rx="6.33"/><rect class="cls-10" x="95.66" y="349.48" width="95.34" height="102.96" rx="2.33" transform="translate(494.99 234.24) rotate(90)"/><path class="cls-11" d="M44.87,325.9h98.31a6.33,6.33,0,0,1,6.33,6.33V348.9a0,0,0,0,1,0,0h-111a0,0,0,0,1,0,0V332.23A6.33,6.33,0,0,1,44.87,325.9Z"/><line class="cls-12" x1="52.85" y1="327.88" x2="135.21" y2="327.88"/><rect class="cls-13" x="38.55" y="348.9" width="110.96" height="2.35"/><rect class="cls-4" x="192.99" y="325.9" width="110.96" height="103.34" rx="6.33"/><rect class="cls-10" x="250.11" y="349.48" width="95.34" height="102.96" rx="2.33" transform="translate(649.43 79.79) rotate(90)"/><path class="cls-11" d="M199.32,325.9h98.31a6.33,6.33,0,0,1,6.33,6.33V348.9a0,0,0,0,1,0,0H193a0,0,0,0,1,0,0V332.23A6.33,6.33,0,0,1,199.32,325.9Z"/><line class="cls-12" x1="207.29" y1="327.88" x2="289.65" y2="327.88"/><rect class="cls-13" x="192.99" y="348.9" width="110.96" height="2.35"/><rect class="cls-4" x="347.44" y="325.9" width="110.96" height="103.34" rx="6.33"/><rect class="cls-10" x="404.55" y="349.48" width="95.34" height="102.96" rx="2.33" transform="translate(803.88 -74.65) rotate(90)"/><path class="cls-11" d="M353.77,325.9h98.31a6.33,6.33,0,0,1,6.33,6.33V348.9a0,0,0,0,1,0,0h-111a0,0,0,0,1,0,0V332.23A6.33,6.33,0,0,1,353.77,325.9Z"/><line class="cls-12" x1="361.74" y1="327.88" x2="444.1" y2="327.88"/><rect class="cls-13" x="347.44" y="348.9" width="110.96" height="2.35"/><rect class="cls-4" x="501.89" y="325.9" width="110.96" height="103.34" rx="6.33"/><rect class="cls-10" x="559" y="349.48" width="95.34" height="102.96" rx="2.33" transform="translate(958.33 -229.1) rotate(90)"/><path class="cls-11" d="M508.21,325.9h98.31a6.33,6.33,0,0,1,6.33,6.33V348.9a0,0,0,0,1,0,0h-111a0,0,0,0,1,0,0V332.23A6.33,6.33,0,0,1,508.21,325.9Z"/><line class="cls-12" x1="516.19" y1="327.88" x2="598.55" y2="327.88"/><rect class="cls-13" x="501.89" y="348.9" width="110.96" height="2.35"/><path class="cls-11" d="M380.48,154.66v15.78H369.61l0-15.77A10.12,10.12,0,0,0,380.48,154.66Z" transform="translate(-49.3 -23.39)"/><path class="cls-14" d="M379.31,156l0,15.78h-3.49V156C376.89,158.12,378.25,158.12,379.31,156Z" transform="translate(-49.3 -23.39)"/><rect class="cls-15" x="321.61" y="135.06" width="1.19" height="12.83"/><path class="cls-11" d="M389.23,146.1l-1.91-3.89,6.9-3.37a20.21,20.21,0,0,0,11.34-17.48l.32-9a1.33,1.33,0,0,0-1.66-1.35L391,114.25,390,110l13.21-3.24a5.68,5.68,0,0,1,7,5.71l-.32,9a24.51,24.51,0,0,1-13.77,21.21Z" transform="translate(-49.3 -23.39)"/><path class="cls-11" d="M360.83,146.1l1.9-3.89-6.89-3.37a20.24,20.24,0,0,1-11.35-17.48l-.31-9a1.34,1.34,0,0,1,.49-1.09,1.3,1.3,0,0,1,1.17-.26l13.22,3.24,1-4.21-13.22-3.24a5.69,5.69,0,0,0-7,5.71l.32,9a24.52,24.52,0,0,0,13.78,21.21Z" transform="translate(-49.3 -23.39)"/><path class="cls-11" d="M391.36,173.85l0,16.75-32.63,0V173.89a3.42,3.42,0,0,1,3.42-3.43h25.78A3.4,3.4,0,0,1,391.36,173.85Z" transform="translate(-49.3 -23.39)"/><path class="cls-11" d="M396.3,100.09l0,38.6A21.28,21.28,0,0,1,375.07,160h0a21.29,21.29,0,0,1-21.31-21.27l0-38.6h28.4Z" transform="translate(-49.3 -23.39)"/><path class="cls-11" d="M375.05,158.8A20.12,20.12,0,0,1,355,138.73l0-37.4,40.17,0,0,37.39a20.11,20.11,0,0,1-20.07,20.11Z" transform="translate(-49.3 -23.39)"/><path class="cls-15" d="M356.51,138.73l0-37.4h-1.55l0,37.4a20.12,20.12,0,0,0,20.09,20.07h0c.26,0,.51,0,.76,0A20.1,20.1,0,0,1,356.51,138.73Z" transform="translate(-49.3 -23.39)"/><path class="cls-14" d="M395.1,101.3h-5.71l0,37.39a20.1,20.1,0,0,1-17.23,19.88,20.54,20.54,0,0,0,2.85.23h0a20.11,20.11,0,0,0,20.07-20.11Z" transform="translate(-49.3 -23.39)"/><polygon class="cls-11" points="350.41 162.49 350.41 167.94 301.11 167.99 301.11 162.53 317.54 162.52 333.99 162.5 350.41 162.49"/><polygon class="cls-15" points="349.9 163.16 349.91 164.39 301.62 164.43 301.61 163.2 317.71 163.19 333.82 163.17 349.9 163.16"/><polygon class="cls-16" points="337.33 159.3 337.33 158.64 314.83 158.64 314.83 152.37 336.68 152.37 336.68 159.3 337.33 159.3 337.33 158.64 337.33 159.3 337.99 159.3 337.99 151.06 313.52 151.06 313.52 159.95 337.99 159.95 337.99 159.3 337.33 159.3"/><path class="cls-11" d="M421.44,140.93c0-.22.07-.48.1-.77a9.31,9.31,0,0,0-.22-3,9.28,9.28,0,0,0-.77-2.1,9.12,9.12,0,0,0-.47-.79,70.42,70.42,0,0,0,.58-28.88l-.61.11a69.7,69.7,0,0,1-.45,28.11l-.26-.33a7.56,7.56,0,0,0-1-.91,68.09,68.09,0,0,0,.94-22.07l-.61.07a67.47,67.47,0,0,1-.87,21.6,7.47,7.47,0,0,0-1.18-.61,4.06,4.06,0,0,0-.42-.14l-.16,0s0,.06,0,.17a4.35,4.35,0,0,0,0,.48,9.24,9.24,0,0,0,0,1.55,11.64,11.64,0,0,0,.37,1.95,13,13,0,0,0,.76,2,11.24,11.24,0,0,0,1.09,1.82,8.9,8.9,0,0,0,1.29,1.41c.22.19.43.36.63.5a6.46,6.46,0,0,0,.55.34,2.92,2.92,0,0,0,.4.2l.15.06.05-.19C421.35,141.32,421.4,141.14,421.44,140.93Z" transform="translate(-49.3 -23.39)"/><path class="cls-11" d="M426.35,134.34a12.74,12.74,0,0,0,.7-2.44,13.06,13.06,0,0,0,.19-2.55,11.56,11.56,0,0,0-.3-2.26,8.86,8.86,0,0,0-.55-1.62c-.09-.2-.18-.36-.23-.46a1.21,1.21,0,0,0-.1-.16l-.12.14c-.07.09-.19.23-.31.4a11.5,11.5,0,0,0-.87,1.44,14.39,14.39,0,0,0-.86,2,17.71,17.71,0,0,0-.6,2.36,15.56,15.56,0,0,0-.26,2.41,13.83,13.83,0,0,0,.11,2.19c0,.33.09.64.15.91a7.28,7.28,0,0,0,.17.73c.06.2.12.37.16.48l.06.17.15-.11.37-.35a5.68,5.68,0,0,0,.51-.55,8.35,8.35,0,0,0,.57-.76A10.5,10.5,0,0,0,426.35,134.34Z" transform="translate(-49.3 -23.39)"/><path class="cls-11" d="M418.05,149.55c.07-.21.13-.46.2-.74s.11-.59.15-.92a9.45,9.45,0,0,0,0-2.13,9.64,9.64,0,0,0-.51-2.17,8.73,8.73,0,0,0-1-1.9,7,7,0,0,0-1.26-1.41,6.49,6.49,0,0,0-1.18-.83,4.3,4.3,0,0,0-.39-.19.64.64,0,0,0-.16-.06,1.37,1.37,0,0,0,0,.17c0,.1-.07.27-.1.46a9.47,9.47,0,0,0-.16,1.53,11.31,11.31,0,0,0,.12,2,11.8,11.8,0,0,0,.51,2.09,10.64,10.64,0,0,0,.85,1.94,8.78,8.78,0,0,0,1.11,1.56c.19.21.38.4.56.57s.35.3.5.41l.37.25.15.08s0-.07.07-.19S418,149.76,418.05,149.55Z" transform="translate(-49.3 -23.39)"/><path class="cls-11" d="M413.62,157.66c.09-.2.19-.44.29-.71s.18-.57.26-.89a9.35,9.35,0,0,0,.28-2.11,9.13,9.13,0,0,0-.24-2.21,8.57,8.57,0,0,0-.73-2,7.77,7.77,0,0,0-1.07-1.56,7.09,7.09,0,0,0-1.07-1c-.15-.11-.29-.19-.37-.24a.71.71,0,0,0-.15-.08l-.06.16a3.6,3.6,0,0,0-.16.45,9.59,9.59,0,0,0-.34,1.49,11.18,11.18,0,0,0-.13,2,13,13,0,0,0,.24,2.13,11.69,11.69,0,0,0,.61,2,8.54,8.54,0,0,0,.9,1.68c.17.24.33.45.49.64a5.2,5.2,0,0,0,.45.47c.13.13.26.22.33.29a.75.75,0,0,0,.14.1,1.32,1.32,0,0,0,.09-.17C413.44,158,413.53,157.86,413.62,157.66Z" transform="translate(-49.3 -23.39)"/><path class="cls-11" d="M408.21,165.16a7.63,7.63,0,0,0,.38-.67c.13-.26.25-.54.37-.85a9.16,9.16,0,0,0,.58-4.29,8.65,8.65,0,0,0-.47-2.08,8,8,0,0,0-.87-1.68,6.47,6.47,0,0,0-.95-1.09c-.13-.13-.26-.22-.33-.29l-.13-.1a1.63,1.63,0,0,0-.09.16c-.05.09-.13.24-.21.42a10.24,10.24,0,0,0-.53,1.44,10.78,10.78,0,0,0-.37,1.94,12.84,12.84,0,0,0,0,2.15,11.69,11.69,0,0,0,.35,2.09,9.44,9.44,0,0,0,.68,1.78c.14.26.27.49.41.7s.27.38.38.52.23.25.3.33a.58.58,0,0,0,.12.11,1.22,1.22,0,0,0,.12-.15C408,165.5,408.1,165.35,408.21,165.16Z" transform="translate(-49.3 -23.39)"/><path class="cls-11" d="M401.88,172a5.88,5.88,0,0,0,.46-.62c.16-.24.33-.51.49-.8a10.35,10.35,0,0,0,.79-2,9.23,9.23,0,0,0,.33-2.21,8.65,8.65,0,0,0-.21-2.13,7.42,7.42,0,0,0-.65-1.78,6.7,6.7,0,0,0-.8-1.2,3.73,3.73,0,0,0-.3-.33l-.12-.11-.1.14c-.06.09-.16.22-.26.39a10.54,10.54,0,0,0-.71,1.37,11.52,11.52,0,0,0-.61,1.88,11.78,11.78,0,0,0-.23,4.26,8.74,8.74,0,0,0,.45,1.86,7.46,7.46,0,0,0,.32.74,4.88,4.88,0,0,0,.31.57c.09.16.2.28.25.36a.61.61,0,0,0,.11.13l.13-.14C401.61,172.26,401.75,172.12,401.88,172Z" transform="translate(-49.3 -23.39)"/><path class="cls-11" d="M424.19,141c-.15.27-.27.51-.37.71l-.21.51-.08.19.16,0,.44.07a4.11,4.11,0,0,0,.65,0,5.77,5.77,0,0,0,.81,0,7.61,7.61,0,0,0,1.9-.51,9.58,9.58,0,0,0,2-1.15,11.43,11.43,0,0,0,1.78-1.7,11.9,11.9,0,0,0,1.33-2,11.11,11.11,0,0,0,.77-1.78c.08-.23.13-.44.17-.57a1.63,1.63,0,0,0,.05-.22.48.48,0,0,0-.16,0l-.44,0a7.23,7.23,0,0,0-1.34.19,81.44,81.44,0,0,0,1.06-26.08l-.61.07A81.14,81.14,0,0,1,431,134.94a10,10,0,0,0-1.29.55,3.85,3.85,0,0,0-.38.23,79.78,79.78,0,0,0,.52-32.1l-.61.11a78.94,78.94,0,0,1-.65,32.44c-.26.18-.53.37-.78.57a14.88,14.88,0,0,0-1.73,1.63,15.91,15.91,0,0,0-1.36,1.78C424.5,140.44,424.33,140.72,424.19,141Z" transform="translate(-49.3 -23.39)"/><path class="cls-11" d="M430.27,144.72a6.67,6.67,0,0,0-1.47,0,9.35,9.35,0,0,0-1.92.49,11.93,11.93,0,0,0-2,1,14.56,14.56,0,0,0-1.91,1.39,15.55,15.55,0,0,0-1.57,1.58c-.22.27-.42.52-.59.76s-.33.47-.45.66-.21.36-.28.47l-.09.18.15.06c.1,0,.24.09.42.13s.4.09.64.12a6.77,6.77,0,0,0,.81.05,7,7,0,0,0,1.95-.26,9,9,0,0,0,2.1-.88,10.64,10.64,0,0,0,2-1.46,11.32,11.32,0,0,0,1.57-1.79,11.73,11.73,0,0,0,1-1.65c.11-.22.18-.42.24-.55l.08-.21-.16,0C430.61,144.77,430.46,144.73,430.27,144.72Z" transform="translate(-49.3 -23.39)"/><path class="cls-11" d="M426.34,154.41a6.81,6.81,0,0,0-1.46-.16,8.94,8.94,0,0,0-2,.24,11.61,11.61,0,0,0-2.15.73,14.28,14.28,0,0,0-2.07,1.13,15,15,0,0,0-1.75,1.37l-.68.68c-.21.22-.38.42-.53.6s-.25.33-.33.42l-.12.17.14.08c.1,0,.24.12.41.18a4.54,4.54,0,0,0,.62.2,5.51,5.51,0,0,0,.79.16,7.18,7.18,0,0,0,2,0,9.43,9.43,0,0,0,2.2-.61,11,11,0,0,0,2.14-1.19,11.45,11.45,0,0,0,1.78-1.58,11.15,11.15,0,0,0,1.17-1.51c.14-.2.24-.39.31-.51l.11-.19-.16-.06A3.69,3.69,0,0,0,426.34,154.41Z" transform="translate(-49.3 -23.39)"/><path class="cls-11" d="M421.24,163.52a6.4,6.4,0,0,0-1.43-.34,9.3,9.3,0,0,0-2,0,12.32,12.32,0,0,0-2.22.45,14.26,14.26,0,0,0-2.19.87,14.41,14.41,0,0,0-1.91,1.15c-.28.2-.54.4-.76.59s-.43.36-.6.52-.3.3-.39.39a1.12,1.12,0,0,0-.13.15.63.63,0,0,0,.13.09,4.09,4.09,0,0,0,.38.23,4.72,4.72,0,0,0,.59.28,7.67,7.67,0,0,0,.77.26,7.27,7.27,0,0,0,1.95.22,9.29,9.29,0,0,0,2.26-.33,11.62,11.62,0,0,0,2.27-.92,11.85,11.85,0,0,0,2-1.34,12.18,12.18,0,0,0,1.35-1.35c.16-.19.29-.37.37-.47l.13-.18a.64.64,0,0,0-.15-.08A4.31,4.31,0,0,0,421.24,163.52Z" transform="translate(-49.3 -23.39)"/><path class="cls-11" d="M415,171.93a6.31,6.31,0,0,0-1.37-.51,8.78,8.78,0,0,0-2-.26,12.62,12.62,0,0,0-2.26.17,14.53,14.53,0,0,0-2.29.6,14.37,14.37,0,0,0-2,.9c-.3.17-.58.33-.83.49a7.42,7.42,0,0,0-.66.45c-.19.13-.34.26-.44.34l-.15.13.12.11c.08.06.19.17.34.28a5.94,5.94,0,0,0,.55.35,6.43,6.43,0,0,0,.74.35,7.64,7.64,0,0,0,1.91.46,9.33,9.33,0,0,0,2.29,0,11.23,11.23,0,0,0,2.37-.63,11.75,11.75,0,0,0,2.12-1.1,10.8,10.8,0,0,0,1.51-1.17c.19-.17.33-.33.43-.42a1.52,1.52,0,0,0,.15-.17l-.13-.09C415.33,172.11,415.2,172,415,171.93Z" transform="translate(-49.3 -23.39)"/><path class="cls-11" d="M423.37,139.27a.59.59,0,0,0-.68.46,74.73,74.73,0,0,1-22.51,34.9c-.49.43-3.73,2.58-3,3.26s3.27-2.09,3.83-2.58q2-1.74,3.87-3.62a76.86,76.86,0,0,0,6.89-8,76,76,0,0,0,10.14-18.38q1-2.61,1.81-5.3A.58.58,0,0,0,423.37,139.27Z" transform="translate(-49.3 -23.39)"/><path class="cls-11" d="M328.62,140.93a6.94,6.94,0,0,1-.1-.77,9,9,0,0,1,0-.93,9.41,9.41,0,0,1,.25-2.12,9.31,9.31,0,0,1,.78-2.1,9.12,9.12,0,0,1,.47-.79,70.25,70.25,0,0,1-.58-28.88l.6.11a69.88,69.88,0,0,0,.46,28.11l.25-.33a8.33,8.33,0,0,1,1-.91,68.09,68.09,0,0,1-.95-22.07l.62.07a67.47,67.47,0,0,0,.87,21.6,7.47,7.47,0,0,1,1.18-.61c.17-.07.32-.11.41-.14l.16,0a.83.83,0,0,1,0,.17c0,.11,0,.28,0,.48a11.28,11.28,0,0,1-.4,3.5,13,13,0,0,1-.76,2,12,12,0,0,1-1.09,1.82,9.41,9.41,0,0,1-1.29,1.41c-.22.19-.43.36-.63.5s-.39.25-.55.34a2.92,2.92,0,0,1-.4.2l-.15.06a1.38,1.38,0,0,1-.06-.19C328.71,141.32,328.66,141.14,328.62,140.93Z" transform="translate(-49.3 -23.39)"/><path class="cls-11" d="M323.71,134.34a12.06,12.06,0,0,1-.7-2.44,12.33,12.33,0,0,1-.19-2.55,10.22,10.22,0,0,1,.3-2.26,8.86,8.86,0,0,1,.55-1.62c.09-.2.18-.36.23-.46a1.21,1.21,0,0,1,.1-.16l.12.14c.07.09.19.23.31.4a12.84,12.84,0,0,1,.87,1.44,14.39,14.39,0,0,1,.86,2,17.71,17.71,0,0,1,.6,2.36,16.85,16.85,0,0,1,.25,2.41,12.78,12.78,0,0,1-.1,2.19c0,.33-.09.64-.15.91s-.12.52-.18.73-.12.37-.15.48a1.78,1.78,0,0,1-.07.17l-.14-.11c-.09-.08-.23-.2-.38-.35s-.32-.33-.51-.55-.37-.48-.56-.76A10,10,0,0,1,323.71,134.34Z" transform="translate(-49.3 -23.39)"/><path class="cls-11" d="M332,149.55a7,7,0,0,1-.2-.74c-.06-.28-.11-.59-.15-.92a9.45,9.45,0,0,1,0-2.13,9.64,9.64,0,0,1,.51-2.17,8.29,8.29,0,0,1,1-1.9,7.63,7.63,0,0,1,1.26-1.41,6.86,6.86,0,0,1,1.18-.83,4.23,4.23,0,0,1,.4-.19l.15-.06.05.17c0,.1.07.27.1.46a10.76,10.76,0,0,1,.16,1.53,11.36,11.36,0,0,1-.13,2,11.77,11.77,0,0,1-.5,2.09,10.66,10.66,0,0,1-.86,1.94,8.28,8.28,0,0,1-1.1,1.56c-.19.21-.38.4-.56.57s-.36.3-.51.41-.28.19-.37.25l-.14.08s0-.07-.07-.19A3.55,3.55,0,0,1,332,149.55Z" transform="translate(-49.3 -23.39)"/><path class="cls-11" d="M336.44,157.66a7.38,7.38,0,0,1-.29-.71,8.56,8.56,0,0,1-.27-.89,9.36,9.36,0,0,1-.27-2.11,9.13,9.13,0,0,1,.24-2.21,8.14,8.14,0,0,1,.73-2,7.77,7.77,0,0,1,1.07-1.56,6.64,6.64,0,0,1,1.07-1c.15-.11.29-.19.37-.24l.14-.08.07.16c0,.1.1.26.16.45a9.59,9.59,0,0,1,.34,1.49,11.21,11.21,0,0,1,.12,2,12,12,0,0,1-.24,2.13,10.87,10.87,0,0,1-.6,2,9.1,9.1,0,0,1-.9,1.68c-.17.24-.33.45-.49.64s-.32.34-.45.47-.26.22-.34.29l-.13.1-.1-.17C336.62,158,336.52,157.86,336.44,157.66Z" transform="translate(-49.3 -23.39)"/><path class="cls-11" d="M341.84,165.16c-.11-.19-.24-.41-.37-.67s-.26-.54-.38-.85a9.28,9.28,0,0,1-.53-2.06,8.76,8.76,0,0,1,0-2.23,8.2,8.2,0,0,1,.47-2.08,7.56,7.56,0,0,1,.87-1.68,7,7,0,0,1,.94-1.09c.13-.13.26-.22.34-.29l.13-.1a1.63,1.63,0,0,1,.09.16c.05.09.13.24.21.42a10.38,10.38,0,0,1,.89,3.38,11.85,11.85,0,0,1,0,2.15,10.14,10.14,0,0,1-.35,2.09,8.25,8.25,0,0,1-.68,1.78c-.13.26-.27.49-.4.7s-.27.38-.39.52-.23.25-.29.33l-.12.11a1.22,1.22,0,0,1-.12-.15C342.07,165.5,342,165.35,341.84,165.16Z" transform="translate(-49.3 -23.39)"/><path class="cls-11" d="M348.17,172c-.14-.17-.29-.38-.46-.62s-.32-.51-.48-.8a9.46,9.46,0,0,1-1.12-4.19,8.2,8.2,0,0,1,.21-2.13,7,7,0,0,1,.65-1.78,6.2,6.2,0,0,1,.8-1.2c.11-.15.23-.25.29-.33l.12-.11.11.14c.06.09.16.22.26.39a10.54,10.54,0,0,1,.71,1.37,11.52,11.52,0,0,1,.61,1.88,12.56,12.56,0,0,1,.3,2.13,11.53,11.53,0,0,1-.07,2.13,10.14,10.14,0,0,1-.45,1.86,7.46,7.46,0,0,1-.32.74c-.11.22-.21.41-.31.57s-.2.28-.26.36a.93.93,0,0,1-.1.13l-.14-.14C348.44,172.26,348.31,172.12,348.17,172Z" transform="translate(-49.3 -23.39)"/><path class="cls-11" d="M325.87,141c.14.27.27.51.36.71s.17.39.22.51a1.23,1.23,0,0,1,.07.19l-.16,0-.43.07a4.28,4.28,0,0,1-.65,0,5.77,5.77,0,0,1-.81,0,7.5,7.5,0,0,1-1.9-.51,9.33,9.33,0,0,1-2-1.15,11.43,11.43,0,0,1-1.78-1.7,12.63,12.63,0,0,1-1.34-2,11.92,11.92,0,0,1-.76-1.78c-.08-.23-.13-.44-.17-.57l-.06-.22a.59.59,0,0,1,.17,0l.44,0a7.14,7.14,0,0,1,1.33.19,82,82,0,0,1-1.06-26.08l.62.07a80.58,80.58,0,0,0,1.12,26.22,10,10,0,0,1,1.29.55,3.85,3.85,0,0,1,.38.23,79.78,79.78,0,0,1-.52-32.1l.61.11a79.11,79.11,0,0,0,.64,32.44c.27.18.53.37.79.57a15.72,15.72,0,0,1,1.73,1.63,14.67,14.67,0,0,1,1.35,1.78C325.56,140.44,325.73,140.72,325.87,141Z" transform="translate(-49.3 -23.39)"/><path class="cls-11" d="M319.79,144.72a6.67,6.67,0,0,1,1.47,0,9.11,9.11,0,0,1,1.91.49,12,12,0,0,1,2.05,1,14.1,14.1,0,0,1,3.47,3c.22.27.42.52.6.76s.33.47.45.66.21.36.28.47l.09.18-.15.06c-.1,0-.25.09-.43.13a6.19,6.19,0,0,1-.64.12,6.47,6.47,0,0,1-.8.05,7,7,0,0,1-1.95-.26,9.2,9.2,0,0,1-2.11-.88,10.57,10.57,0,0,1-2-1.46,11.32,11.32,0,0,1-1.57-1.79,11.73,11.73,0,0,1-1-1.65c-.11-.22-.19-.42-.24-.55a1.33,1.33,0,0,1-.08-.21l.16,0C319.45,144.77,319.6,144.73,319.79,144.72Z" transform="translate(-49.3 -23.39)"/><path class="cls-11" d="M323.72,154.41a6.81,6.81,0,0,1,1.46-.16,8.94,8.94,0,0,1,2,.24,11.87,11.87,0,0,1,2.15.73,13.68,13.68,0,0,1,3.81,2.5c.26.24.49.47.69.68s.38.42.53.6.25.33.33.42l.12.17-.15.08a4.31,4.31,0,0,1-.4.18,4.54,4.54,0,0,1-.62.2,5.65,5.65,0,0,1-.8.16,7.18,7.18,0,0,1-2,0,9.43,9.43,0,0,1-2.2-.61,10.62,10.62,0,0,1-2.13-1.19,11.45,11.45,0,0,1-1.78-1.58,10.55,10.55,0,0,1-1.18-1.51c-.13-.2-.23-.39-.31-.51a1.94,1.94,0,0,1-.1-.19l.15-.06C323.39,154.51,323.54,154.45,323.72,154.41Z" transform="translate(-49.3 -23.39)"/><path class="cls-11" d="M328.82,163.52a6.27,6.27,0,0,1,1.43-.34,9.2,9.2,0,0,1,2,0,12.15,12.15,0,0,1,2.22.45,14.38,14.38,0,0,1,2.2.87,15.83,15.83,0,0,1,1.91,1.15c.28.2.53.4.76.59s.43.36.6.52.29.3.38.39l.14.15a.63.63,0,0,1-.13.09c-.09.05-.22.15-.38.23a4.72,4.72,0,0,1-.59.28c-.23.09-.49.18-.77.26a7.32,7.32,0,0,1-1.95.22,9.15,9.15,0,0,1-2.26-.33,11.37,11.37,0,0,1-2.27-.92,11.85,11.85,0,0,1-2-1.34,11.37,11.37,0,0,1-1.35-1.35c-.16-.19-.29-.37-.37-.47l-.13-.18a.69.69,0,0,1,.14-.08C328.51,163.66,328.65,163.58,328.82,163.52Z" transform="translate(-49.3 -23.39)"/><path class="cls-11" d="M335,171.93a6.42,6.42,0,0,1,1.38-.51,8.78,8.78,0,0,1,2-.26,12.62,12.62,0,0,1,2.26.17,14.82,14.82,0,0,1,2.29.6,13.75,13.75,0,0,1,2,.9c.31.17.59.33.84.49s.48.31.66.45.33.26.44.34l.15.13-.12.11c-.08.06-.19.17-.34.28a6.59,6.59,0,0,1-1.29.7,7.64,7.64,0,0,1-1.91.46,9.33,9.33,0,0,1-2.29,0,11.23,11.23,0,0,1-2.37-.63,11.75,11.75,0,0,1-2.12-1.1,11.61,11.61,0,0,1-1.52-1.17c-.18-.17-.32-.33-.42-.42a1.52,1.52,0,0,1-.15-.17.63.63,0,0,1,.13-.09C334.73,172.11,334.86,172,335,171.93Z" transform="translate(-49.3 -23.39)"/><path class="cls-11" d="M326.69,139.27a.6.6,0,0,1,.68.46,74.81,74.81,0,0,0,22.5,34.9c.5.43,3.73,2.58,3,3.26s-3.28-2.09-3.83-2.58q-2-1.74-3.87-3.62a77,77,0,0,1-6.9-8,75.94,75.94,0,0,1-10.13-18.38q-1-2.61-1.81-5.3A.58.58,0,0,1,326.69,139.27Z" transform="translate(-49.3 -23.39)"/><rect class="cls-14" x="310.34" y="82.04" width="34.92" height="1.16"/><rect class="cls-15" x="315.44" y="152.99" width="20.67" height="0.78"/><path class="cls-17" d="M426.72,288.45H323.28a17.92,17.92,0,0,1-17.92-17.93h0a17.92,17.92,0,0,1,17.92-17.92H426.72a17.92,17.92,0,0,1,17.92,17.92h0A17.92,17.92,0,0,1,426.72,288.45Z" transform="translate(-49.3 -23.39)"/><rect class="cls-11" x="256.05" y="225.47" width="139.29" height="35.84" rx="17.92"/><path class="cls-18" d="M323.28,280.71a13.93,13.93,0,0,1,0-27.85H426.72a13.93,13.93,0,0,1,0,27.85Z" transform="translate(-49.3 -23.39)"/></g><g id="TEXTS"><text class="cls-19" transform="translate(98.02 34.29)">T<tspan class="cls-20" x="19.66" y="0">OURN</tspan><tspan class="cls-21" x="125.02" y="0">A</tspan><tspan class="cls-22" x="150.34" y="0">MENT </tspan><tspan class="cls-23" x="261.47" y="0">SCHEDULE</tspan></text><text class="cls-24" transform="translate(30.15 100.4)">Team Name</text><text class="cls-24" transform="translate(147.57 131.05)">Team Name</text><text class="cls-24" transform="translate(261.12 193.18)">Team Name</text><text class="cls-24" transform="translate(147.57 255.13)">Team Name</text><text class="cls-24" transform="translate(30.15 162.01)">Team Name</text><text class="cls-24" transform="translate(30.15 225.45)">Team Name</text><text class="cls-24" transform="translate(30.15 285.74)">Team Name</text><text class="cls-24" transform="translate(341.43 193.18)">Team Name</text><text class="cls-24" transform="translate(454.98 131.05)">Team Name</text><text class="cls-24" transform="translate(454.98 255.13)">Team Name</text><text class="cls-24" transform="translate(572.39 100.4)">Team Name</text><text class="cls-24" transform="translate(572.39 162.01)">Team Name</text><text class="cls-24" transform="translate(572.39 225.45)">Team Name</text><text class="cls-24" transform="translate(572.39 285.74)">Team Name</text><text class="cls-25" transform="translate(276.24 249.16)">CHAMPION</text><text class="cls-26" transform="translate(534.87 341.25)">Group 4</text><text class="cls-27" transform="translate(543.41 363.84)">Team 1</text><text class="cls-27" transform="translate(543.41 380.52)">Team 2</text><text class="cls-27" transform="translate(542.65 397.21)">Team 3</text><text class="cls-27" transform="translate(542.65 413.89)">Team 4</text><text class="cls-26" transform="translate(380.43 341.25)">Group 3</text><text class="cls-27" transform="translate(388.96 363.84)">Team 1</text><text class="cls-27" transform="translate(388.96 380.52)">Team 2</text><text class="cls-27" transform="translate(388.21 397.21)">Team 3</text><text class="cls-27" transform="translate(388.21 413.89)">Team 4</text><text class="cls-26" transform="translate(225.98 341.25)">Group 2</text><text class="cls-27" transform="translate(234.51 363.84)">Team 1</text><text class="cls-27" transform="translate(234.51 380.52)">Team 2</text><text class="cls-27" transform="translate(233.76 397.21)">Team 3</text><text class="cls-27" transform="translate(233.76 413.89)">Team 4</text><text class="cls-26" transform="translate(71.53 341.25)">Group 1</text><text class="cls-27" transform="translate(80.07 363.84)">Team 1</text><text class="cls-27" transform="translate(80.07 380.52)">Team 2</text><text class="cls-27" transform="translate(79.31 397.21)">Team 3</text><text class="cls-27" transform="translate(79.31 413.89)">Team 4</text></g></g></svg>